<svg width="19" height="19" viewBox="0 0 19 19" fill="none" xmlns="http://www.w3.org/2000/svg">
<path fill-rule="evenodd" clip-rule="evenodd" d="M18.4119 0.587647C18.5196 0.695053 18.605 0.822646 18.6633 0.963119C18.7216 1.10359 18.7516 1.25419 18.7516 1.40627C18.7516 1.55836 18.7216 1.70895 18.6633 1.84943C18.605 1.9899 18.5196 2.11749 18.4119 2.2249L2.22438 18.4124C2.00727 18.6295 1.7128 18.7515 1.40576 18.7515C1.09871 18.7515 0.804245 18.6295 0.587132 18.4124C0.370019 18.1953 0.248047 17.9008 0.248047 17.5938C0.248047 17.2867 0.370019 16.9923 0.587132 16.7751L16.7746 0.587647C16.882 0.47997 17.0096 0.394539 17.1501 0.336249C17.2906 0.277959 17.4412 0.247955 17.5933 0.247955C17.7453 0.247955 17.8959 0.277959 18.0364 0.336249C18.1769 0.394539 18.3045 0.47997 18.4119 0.587647Z" fill="#195557"/>
<path fill-rule="evenodd" clip-rule="evenodd" d="M0.587494 0.587647C0.479817 0.695053 0.394386 0.822646 0.336096 0.963119C0.277807 1.10359 0.247803 1.25419 0.247803 1.40627C0.247803 1.55836 0.277807 1.70895 0.336096 1.84943C0.394386 1.9899 0.479817 2.11749 0.587494 2.2249L16.775 18.4124C16.9921 18.6295 17.2866 18.7515 17.5936 18.7515C17.9007 18.7515 18.1951 18.6295 18.4122 18.4124C18.6294 18.1953 18.7513 17.9008 18.7513 17.5938C18.7513 17.2867 18.6294 16.9923 18.4122 16.7751L2.22474 0.587647C2.11734 0.47997 1.98975 0.394539 1.84927 0.336249C1.7088 0.277959 1.55821 0.247955 1.40612 0.247955C1.25403 0.247955 1.10344 0.277959 0.962967 0.336249C0.822494 0.394539 0.6949 0.47997 0.587494 0.587647Z" fill="#195557"/>
</svg>
